<svg xmlns="http://www.w3.org/2000/svg" viewBox="0 0 100 100" width="1024" height="1024">
  <defs>
    <linearGradient id="g" x1="0" y1="0" x2="1" y2="1">
      <stop offset="0" stop-color="#1C8FA1"></stop>
      <stop offset="1" stop-color="#1ED7DE"></stop>
    </linearGradient>
  </defs>
  <g fill="url(#g)">
    <rect x="30" y="13" width="16" height="9" rx="3.5"></rect>
    <rect x="34.5" y="21" width="7" height="6"></rect>
    <rect x="52.5" y="28" width="11" height="8" rx="3" transform="rotate(-40 58 32)"></rect>
  </g>
  <circle cx="38" cy="56" r="25" fill="none" stroke="url(#g)" stroke-width="7"></circle>
  <g stroke="url(#g)" stroke-width="3" stroke-linecap="round">
    <line x1="38" y1="33" x2="38" y2="38"></line>
    <line x1="60" y1="56" x2="55" y2="56"></line>
    <line x1="38" y1="79" x2="38" y2="74"></line>
    <line x1="16" y1="56" x2="21" y2="56"></line>
  </g>
  <line x1="38" y1="56" x2="27" y2="67" stroke="url(#g)" stroke-width="4" stroke-linecap="round"></line>
  <circle cx="38" cy="56" r="3.6" fill="url(#g)"></circle>
  <rect x="54" y="40" width="40" height="54" rx="8" fill="url(#g)"></rect>
  <g fill="none" stroke="#fff" stroke-width="4" stroke-linecap="round" stroke-linejoin="round">
    <polyline points="60,55 63,58 69,51"></polyline>
    <polyline points="60,70 63,73 69,66"></polyline>
    <polyline points="60,85 63,88 69,81"></polyline>
  </g>
  <g fill="#fff">
    <rect x="75" y="52.5" width="15" height="5" rx="2.5"></rect>
    <rect x="75" y="67.5" width="15" height="5" rx="2.5"></rect>
    <rect x="75" y="82.5" width="15" height="5" rx="2.5"></rect>
  </g>
</svg>